<svg width="40" height="40" viewBox="0 0 40 40" fill="none" xmlns="http://www.w3.org/2000/svg">
<g clip-path="url(#clip0_305_2204)">
<path d="M20.0242 38.0426C10.1144 38.0426 1.99552 29.8839 1.99552 19.9741C1.99552 17.7454 2.39351 15.6361 3.14968 13.6462L13.6963 34.8587C13.8156 35.1373 14.0146 35.3761 14.333 35.3761C14.6514 35.3761 14.8504 35.1373 14.9698 34.8587L19.8252 23.9938C19.865 23.8744 19.9446 23.755 20.064 23.755C20.1834 23.755 20.2232 23.8744 20.3028 23.9938L25.1582 34.8587C25.2776 35.1373 25.4766 35.3761 25.795 35.3761C26.1133 35.3761 26.3123 35.1373 26.4317 34.8587L36.9783 13.6462C37.7345 15.6361 38.1325 17.7454 38.1325 19.9741C38.0529 29.8839 29.934 38.0426 20.0242 38.0426ZM20.0242 15.8749C19.9048 15.8749 19.865 15.7555 19.7854 15.6361L14.134 2.90064C15.9648 2.22406 17.9547 1.86588 20.0242 1.86588C22.0937 1.86588 24.0836 2.22406 25.9144 2.90064L20.263 15.6361C20.1834 15.7953 20.1436 15.8749 20.0242 15.8749ZM14.2534 28.9686C14.134 28.9686 14.0942 28.8492 14.0146 28.7298L4.86101 10.2633C6.49274 7.75604 8.68165 5.64672 11.3481 4.17418L17.9547 18.8598C18.0343 19.0986 18.2333 19.1782 18.4323 19.1782H21.6161C21.8549 19.1782 22.0141 19.1384 22.1335 18.8598L28.74 4.17418C31.3667 5.64672 33.5954 7.75604 35.2272 10.2633L25.994 28.7298C25.9542 28.8492 25.8746 28.9686 25.7552 28.9686C25.6358 28.9686 25.596 28.8492 25.5164 28.7298L22.0539 20.8497C21.9345 20.5711 21.7753 20.5313 21.5365 20.5313H18.3527C18.1139 20.5313 17.9547 20.5711 17.8353 20.8497L14.4922 28.7298C14.4524 28.8492 14.3728 28.9686 14.2534 28.9686ZM20.0242 39.8733C31.0483 39.8733 39.9234 30.9983 39.9234 19.9741C39.9234 8.94999 31.0483 0.0749512 20.0242 0.0749512C9.00004 0.0749512 0.125 8.94999 0.125 19.9741C0.125 30.9983 9.00004 39.8733 20.0242 39.8733Z" fill="#5D5F61"/>
</g>
<defs>
<clipPath id="clip0_305_2204">
<rect width="40" height="40" fill="white"/>
</clipPath>
</defs>
</svg>
